<svg width="68" height="68" viewBox="0 0 68 68" fill="none" xmlns="http://www.w3.org/2000/svg">
<g filter="url(#filter0_d_215_575)">
<path d="M2 33C2 15.3269 16.3269 1 34 1C51.6731 1 66 15.3269 66 33C66 50.6731 51.6731 65 34 65C16.3269 65 2 50.6731 2 33Z" fill="white"/>
<path d="M34.9678 1.01562C35.6158 1.03487 36.2587 1.07461 36.8965 1.13184L36.8086 2.125C37.4337 2.18111 38.0533 2.256 38.667 2.34863L38.8154 1.36035C39.4561 1.45704 40.0902 1.57393 40.7178 1.70801L40.5098 2.68457C41.1228 2.81555 41.7292 2.96423 42.3281 3.13086L42.5957 2.16895C43.2189 2.34232 43.8342 2.53461 44.4414 2.74414L44.1162 3.6875C44.7078 3.89164 45.2914 4.1132 45.8662 4.35156L46.248 3.42969C46.8449 3.67718 47.4328 3.9417 48.0107 4.22363L47.5732 5.12109C48.1354 5.39534 48.6879 5.68651 49.2305 5.99316L49.7207 5.12402C50.2826 5.4416 50.8348 5.7741 51.375 6.12402L50.832 6.96387C51.3566 7.30371 51.8709 7.65825 52.373 8.02832L52.9639 7.22461C53.4832 7.60737 53.9906 8.00524 54.4854 8.41797L53.8467 9.18457C54.3264 9.58477 54.7935 9.99974 55.248 10.4277L55.9316 9.7002C56.401 10.1421 56.8569 10.5981 57.2988 11.0674L56.5723 11.752C57.0003 12.2065 57.4152 12.6736 57.8154 13.1533L58.5811 12.5137C58.9938 13.0084 59.3916 13.5158 59.7744 14.0352L58.9717 14.627C59.3418 15.1291 59.6963 15.6434 60.0361 16.168L60.875 15.624C61.2249 16.1642 61.5574 16.7164 61.875 17.2783L61.0068 17.7695C61.3135 18.3121 61.6047 18.8646 61.8789 19.4268L62.7754 18.9883C63.0574 19.5663 63.3218 20.1541 63.5693 20.751L62.6484 21.1338C62.8868 21.7086 63.1084 22.2922 63.3125 22.8838L64.2549 22.5576C64.4644 23.1649 64.6567 23.7801 64.8301 24.4033L63.8691 24.6719C64.0358 25.2708 64.1844 25.8772 64.3154 26.4902L65.291 26.2812C65.4251 26.9088 65.542 27.5429 65.6387 28.1836L64.6514 28.333C64.744 28.9467 64.8189 29.5663 64.875 30.1914L65.8672 30.1025C65.9244 30.7403 65.9641 31.3832 65.9834 32.0312L64.9863 32.0605C64.9956 32.3724 65 32.6858 65 33C65 33.3142 64.9956 33.6276 64.9863 33.9395L65.9834 33.9678C65.9641 34.6158 65.9244 35.2587 65.8672 35.8965L64.875 35.8086C64.8189 36.4337 64.744 37.0533 64.6514 37.667L65.6387 37.8154C65.542 38.4561 65.4251 39.0902 65.291 39.7178L64.3154 39.5098C64.1845 40.1228 64.0358 40.7292 63.8691 41.3281L64.8301 41.5957C64.6567 42.2189 64.4644 42.8341 64.2549 43.4414L63.3125 43.1162C63.1084 43.7078 62.8868 44.2914 62.6484 44.8662L63.5693 45.248C63.3218 45.8449 63.0573 46.4327 62.7754 47.0107L61.8789 46.5732C61.6047 47.1354 61.3135 47.6879 61.0068 48.2305L61.875 48.7207C61.5574 49.2826 61.2249 49.8348 60.875 50.375L60.0361 49.832C59.6963 50.3566 59.3418 50.8709 58.9717 51.373L59.7744 51.9639C59.3916 52.4832 58.9938 52.9906 58.5811 53.4854L57.8154 52.8467C57.4152 53.3264 57.0003 53.7935 56.5723 54.248L57.2988 54.9316C56.8569 55.401 56.401 55.8569 55.9316 56.2988L55.248 55.5723C54.7935 56.0003 54.3264 56.4152 53.8467 56.8154L54.4854 57.5811C53.9906 57.9938 53.4832 58.3916 52.9639 58.7744L52.373 57.9717C51.8709 58.3418 51.3566 58.6963 50.832 59.0361L51.375 59.875C50.8348 60.2249 50.2826 60.5574 49.7207 60.875L49.2305 60.0068C48.6879 60.3135 48.1354 60.6047 47.5732 60.8789L48.0107 61.7754C47.4327 62.0573 46.8449 62.3218 46.248 62.5693L45.8662 61.6484C45.2914 61.8868 44.7078 62.1084 44.1162 62.3125L44.4414 63.2549C43.8341 63.4644 43.2189 63.6567 42.5957 63.8301L42.3281 62.8691C41.7292 63.0358 41.1228 63.1844 40.5098 63.3154L40.7178 64.291C40.0902 64.4251 39.4561 64.542 38.8154 64.6387L38.667 63.6514C38.0533 63.744 37.4337 63.8189 36.8086 63.875L36.8965 64.8672C36.2587 64.9244 35.6158 64.9641 34.9678 64.9834L34.9395 63.9863C34.6276 63.9956 34.3142 64 34 64C33.6858 64 33.3724 63.9956 33.0605 63.9863L33.0312 64.9834C32.3832 64.9641 31.7403 64.9244 31.1025 64.8672L31.1914 63.875C30.5663 63.8189 29.9467 63.744 29.333 63.6514L29.1836 64.6387C28.5429 64.542 27.9088 64.4251 27.2812 64.291L27.4902 63.3154C26.8772 63.1845 26.2708 63.0358 25.6719 62.8691L25.4033 63.8301C24.7801 63.6567 24.1649 63.4644 23.5576 63.2549L23.8838 62.3125C23.2922 62.1084 22.7086 61.8868 22.1338 61.6484L21.751 62.5693C21.1541 62.3218 20.5663 62.0574 19.9883 61.7754L20.4268 60.8789C19.8646 60.6047 19.3121 60.3135 18.7695 60.0068L18.2783 60.875C17.7164 60.5574 17.1642 60.2249 16.624 59.875L17.168 59.0361C16.6434 58.6963 16.1291 58.3418 15.627 57.9717L15.0352 58.7744C14.5158 58.3916 14.0084 57.9938 13.5137 57.5811L14.1533 56.8154C13.6736 56.4152 13.2065 56.0003 12.752 55.5723L12.0674 56.2988C11.5981 55.8569 11.1421 55.401 10.7002 54.9316L11.4277 54.248C10.9997 53.7935 10.5848 53.3264 10.1846 52.8467L9.41797 53.4854C9.00524 52.9906 8.60737 52.4832 8.22461 51.9639L9.02832 51.373C8.65825 50.8709 8.30371 50.3566 7.96387 49.832L7.12402 50.375C6.7741 49.8348 6.4416 49.2826 6.12402 48.7207L6.99316 48.2305C6.68651 47.6879 6.39534 47.1354 6.12109 46.5732L5.22363 47.0107C4.9417 46.4328 4.67718 45.8449 4.42969 45.248L5.35156 44.8662C5.1132 44.2914 4.89164 43.7078 4.6875 43.1162L3.74414 43.4414C3.53461 42.8342 3.34232 42.2189 3.16895 41.5957L4.13086 41.3281C3.96423 40.7292 3.81555 40.1228 3.68457 39.5098L2.70801 39.7178C2.57393 39.0902 2.45704 38.4561 2.36035 37.8154L3.34863 37.667C3.256 37.0533 3.18111 36.4337 3.125 35.8086L2.13184 35.8965C2.07461 35.2587 2.03487 34.6158 2.01562 33.9678L3.01367 33.9395C3.0044 33.6276 3 33.3142 3 33C3 32.6858 3.0044 32.3724 3.01367 32.0605L2.01562 32.0312C2.03489 31.3833 2.07459 30.7403 2.13184 30.1025L3.125 30.1914C3.18111 29.5663 3.256 28.9467 3.34863 28.333L2.36035 28.1836C2.45706 27.543 2.57391 26.9088 2.70801 26.2812L3.68457 26.4902C3.81555 25.8772 3.96423 25.2708 4.13086 24.6719L3.16895 24.4033C3.34234 23.7801 3.5346 23.1649 3.74414 22.5576L4.6875 22.8838C4.89164 22.2922 5.1132 21.7086 5.35156 21.1338L4.42969 20.751C4.67719 20.1541 4.94169 19.5662 5.22363 18.9883L6.12109 19.4268C6.39534 18.8646 6.68651 18.3121 6.99316 17.7695L6.12402 17.2783C6.44161 16.7164 6.7741 16.1642 7.12402 15.624L7.96387 16.168C8.30371 15.6434 8.65825 15.1291 9.02832 14.627L8.22461 14.0352C8.60737 13.5158 9.00523 13.0084 9.41797 12.5137L10.1846 13.1533C10.5848 12.6736 10.9997 12.2065 11.4277 11.752L10.7002 11.0674C11.1421 10.5981 11.5981 10.1421 12.0674 9.7002L12.752 10.4277C13.2065 9.99974 13.6736 9.58476 14.1533 9.18457L13.5137 8.41797C14.0084 8.00523 14.5158 7.60737 15.0352 7.22461L15.627 8.02832C16.1291 7.65825 16.6434 7.30371 17.168 6.96387L16.624 6.12402C17.1642 5.7741 17.7164 5.44161 18.2783 5.12402L18.7695 5.99316C19.3121 5.68651 19.8646 5.39534 20.4268 5.12109L19.9883 4.22363C20.5662 3.94169 21.1541 3.67719 21.751 3.42969L22.1338 4.35156C22.7086 4.1132 23.2922 3.89164 23.8838 3.6875L23.5576 2.74414C24.1649 2.5346 24.7801 2.34234 25.4033 2.16895L25.6719 3.13086C26.2708 2.96423 26.8772 2.81555 27.4902 2.68457L27.2812 1.70801C27.9088 1.57391 28.543 1.45706 29.1836 1.36035L29.333 2.34863C29.9467 2.256 30.5663 2.18111 31.1914 2.125L31.1025 1.13184C31.7403 1.07459 32.3833 1.03489 33.0312 1.01562L33.0605 2.01367C33.3724 2.0044 33.6858 2 34 2C34.3142 2 34.6276 2.0044 34.9395 2.01367L34.9678 1.01562Z" stroke="#8C705F" stroke-width="2" stroke-dasharray="2 2"/>
<path d="M38 35.6667C38.2667 34.3334 38.9333 33.4 40 32.3334C41.3333 31.1334 42 29.4 42 27.6667C42 25.545 41.1571 23.5101 39.6569 22.0098C38.1566 20.5095 36.1217 19.6667 34 19.6667C31.8783 19.6667 29.8434 20.5095 28.3431 22.0098C26.8429 23.5101 26 25.545 26 27.6667C26 29 26.2667 30.6 28 32.3334C28.9333 33.2667 29.7333 34.3334 30 35.6667" stroke="#8C705F" stroke-linecap="round" stroke-linejoin="round"/>
<path d="M30 41H38" stroke="#8C705F" stroke-linecap="round" stroke-linejoin="round"/>
<path d="M31.334 46.3333H36.6673" stroke="#8C705F" stroke-linecap="round" stroke-linejoin="round"/>
</g>
<defs>
<filter id="filter0_d_215_575" x="0" y="0" width="68" height="68" filterUnits="userSpaceOnUse" color-interpolation-filters="sRGB">
<feFlood flood-opacity="0" result="BackgroundImageFix"/>
<feColorMatrix in="SourceAlpha" type="matrix" values="0 0 0 0 0 0 0 0 0 0 0 0 0 0 0 0 0 0 127 0" result="hardAlpha"/>
<feOffset dy="1"/>
<feGaussianBlur stdDeviation="1"/>
<feColorMatrix type="matrix" values="0 0 0 0 0 0 0 0 0 0 0 0 0 0 0 0 0 0 0.05 0"/>
<feBlend mode="normal" in2="BackgroundImageFix" result="effect1_dropShadow_215_575"/>
<feBlend mode="normal" in="SourceGraphic" in2="effect1_dropShadow_215_575" result="shape"/>
</filter>
</defs>
</svg>
