<svg width="66" height="66" viewBox="0 0 66 66" fill="none" xmlns="http://www.w3.org/2000/svg">
<g filter="url(#filter0_d_234_1259)">
<path d="M2 32C2 14.8792 15.8792 1 33 1C50.1208 1 64 14.8792 64 32C64 49.1208 50.1208 63 33 63C15.8792 63 2 49.1208 2 32Z" fill="white"/>
<path d="M63.1953 24.957C63.3477 25.6129 63.4769 26.2771 63.5869 26.9482L62.6035 27.1094C62.7088 27.7518 62.7936 28.402 62.8574 29.0576L63.8506 28.96C63.9157 29.6285 63.9595 30.3031 63.9814 30.9834L62.9844 31.0156C62.9949 31.3424 63 31.6706 63 32C63 32.3294 62.9949 32.6576 62.9844 32.9844L63.9814 33.0156C63.9595 33.6959 63.9156 34.3705 63.8506 35.0391L62.8574 34.9424C62.7936 35.598 62.7088 36.2482 62.6035 36.8906L63.5869 37.0508C63.4769 37.7219 63.3477 38.3861 63.1953 39.042L62.2227 38.8164C62.074 39.4564 61.9047 40.0884 61.7158 40.7119L62.6709 41.001C62.4741 41.6506 62.2561 42.291 62.0186 42.9219L61.085 42.5703C60.8537 43.1845 60.6027 43.7895 60.333 44.3838L61.2432 44.7969C60.9629 45.4144 60.6615 46.0202 60.3428 46.6152L59.4639 46.1436C59.1543 46.7215 58.826 47.2882 58.4805 47.8428L59.3262 48.3701C58.9679 48.945 58.5923 49.5077 58.1982 50.0566L57.3877 49.4746C57.0057 50.0068 56.6066 50.5259 56.1914 51.0312L56.9629 51.665C56.5333 52.188 56.0864 52.696 55.624 53.1895L54.8965 52.5078C54.4488 52.9856 53.9856 53.4488 53.5078 53.8965L54.1895 54.624C53.696 55.0864 53.188 55.5333 52.665 55.9629L52.0312 55.1914C51.5259 55.6066 51.0068 56.0057 50.4746 56.3877L51.0566 57.1982C50.5077 57.5923 49.945 57.9679 49.3701 58.3262L48.8428 57.4805C48.2882 57.826 47.7215 58.1543 47.1436 58.4639L47.6152 59.3428C47.0202 59.6615 46.4144 59.9629 45.7969 60.2432L45.3838 59.333C44.7895 59.6027 44.1845 59.8537 43.5703 60.085L43.9219 61.0186C43.291 61.2561 42.6506 61.4741 42.001 61.6709L41.7119 60.7158C41.0884 60.9047 40.4564 61.074 39.8164 61.2227L40.042 62.1953C39.3861 62.3477 38.7219 62.4769 38.0508 62.5869L37.8906 61.6035C37.2482 61.7088 36.598 61.7936 35.9424 61.8574L36.0391 62.8506C35.3705 62.9156 34.6959 62.9595 34.0156 62.9814L33.9844 61.9844C33.6576 61.9949 33.3294 62 33 62C32.6706 62 32.3424 61.9949 32.0156 61.9844L31.9834 62.9814C31.3031 62.9595 30.6285 62.9157 29.96 62.8506L30.0576 61.8574C29.402 61.7936 28.7518 61.7088 28.1094 61.6035L27.9482 62.5869C27.2771 62.4769 26.6129 62.3477 25.957 62.1953L26.1836 61.2227C25.5436 61.074 24.9116 60.9047 24.2881 60.7158L23.998 61.6709C23.3484 61.4741 22.708 61.2561 22.0771 61.0186L22.4297 60.085C21.8155 59.8537 21.2105 59.6027 20.6162 59.333L20.2021 60.2432C19.5847 59.9629 18.9788 59.6615 18.3838 59.3428L18.8564 58.4639C18.2785 58.1543 17.7118 57.826 17.1572 57.4805L16.6289 58.3262C16.054 57.9679 15.4913 57.5923 14.9424 57.1982L15.5254 56.3877C14.9932 56.0057 14.4741 55.6066 13.9688 55.1914L13.334 55.9629C12.8111 55.5333 12.303 55.0864 11.8096 54.624L12.4922 53.8965C12.0144 53.4488 11.5512 52.9856 11.1035 52.5078L10.375 53.1895C9.91265 52.696 9.46575 52.188 9.03613 51.665L9.80859 51.0312C9.39338 50.5259 8.99432 50.0068 8.6123 49.4746L7.80078 50.0566C7.40676 49.5077 7.03108 48.945 6.67285 48.3701L7.51953 47.8428C7.17398 47.2882 6.84567 46.7215 6.53613 46.1436L5.65625 46.6152C5.33753 46.0202 5.03607 45.4144 4.75586 44.7969L5.66699 44.3838C5.39729 43.7895 5.14634 43.1845 4.91504 42.5703L3.98047 42.9219C3.74293 42.291 3.52494 41.6506 3.32812 41.001L4.28418 40.7119C4.09528 40.0884 3.92601 39.4564 3.77734 38.8164L2.80371 39.042C2.65136 38.3861 2.52209 37.7219 2.41211 37.0508L3.39648 36.8906C3.29119 36.2482 3.20638 35.598 3.14258 34.9424L2.14844 35.0391C2.08339 34.3705 2.03948 33.6959 2.01758 33.0156L3.01562 32.9844C3.0051 32.6576 3 32.3294 3 32C3 31.6706 3.0051 31.3424 3.01562 31.0156L2.01758 30.9834C2.0395 30.3031 2.08337 29.6285 2.14844 28.96L3.14258 29.0576C3.20638 28.402 3.29119 27.7518 3.39648 27.1094L2.41211 26.9482C2.51976 26.2915 2.6457 25.6412 2.79395 24.999L2.80371 24.957L3.77734 25.1836C3.92601 24.5436 4.09528 23.9116 4.28418 23.2881L3.32812 22.998C3.52496 22.3484 3.74291 21.708 3.98047 21.0771L4.91504 21.4297C5.14634 20.8155 5.39729 20.2105 5.66699 19.6162L4.75586 19.2021C5.03608 18.5847 5.33752 17.9788 5.65625 17.3838L6.53613 17.8564C6.84567 17.2785 7.17398 16.7118 7.51953 16.1572L6.67285 15.6289C7.03109 15.054 7.40675 14.4913 7.80078 13.9424L8.6123 14.5254C8.99432 13.9932 9.39338 13.4741 9.80859 12.9688L9.03613 12.334C9.46575 11.8111 9.91265 11.303 10.375 10.8096L11.1035 11.4922C11.5512 11.0144 12.0144 10.5512 12.4922 10.1035L11.8096 9.375C12.303 8.91265 12.8111 8.46575 13.334 8.03613L13.9688 8.80859C14.4741 8.39338 14.9932 7.99432 15.5254 7.6123L14.9424 6.80078C15.4913 6.40675 16.054 6.03109 16.6289 5.67285L17.1572 6.51953C17.7118 6.17398 18.2785 5.84567 18.8564 5.53613L18.3838 4.65625C18.9788 4.33752 19.5847 4.03608 20.2021 3.75586L20.6162 4.66699C21.2105 4.39729 21.8155 4.14634 22.4297 3.91504L22.0771 2.98047C22.708 2.74291 23.3484 2.52496 23.998 2.32812L24.2881 3.28418C24.9116 3.09528 25.5436 2.92601 26.1836 2.77734L25.957 1.80371C26.6129 1.65134 27.2771 1.52211 27.9482 1.41211L28.1094 2.39648C28.7518 2.29119 29.402 2.20638 30.0576 2.14258L29.96 1.14844C30.6285 1.08337 31.3031 1.0395 31.9834 1.01758L32.0156 2.01562C32.3424 2.0051 32.6706 2 33 2C33.3294 2 33.6576 2.0051 33.9844 2.01562L34.0156 1.01758C34.6959 1.03948 35.3705 1.08339 36.0391 1.14844L35.9424 2.14258C36.598 2.20638 37.2482 2.29119 37.8906 2.39648L38.0508 1.41211C38.7219 1.52209 39.3861 1.65136 40.042 1.80371L39.8164 2.77734C40.4564 2.92601 41.0884 3.09528 41.7119 3.28418L42.001 2.32812C42.6506 2.52494 43.291 2.74293 43.9219 2.98047L43.5703 3.91504C44.1845 4.14634 44.7895 4.39729 45.3838 4.66699L45.7969 3.75586C46.4144 4.03607 47.0202 4.33753 47.6152 4.65625L47.1436 5.53613C47.7215 5.84567 48.2882 6.17398 48.8428 6.51953L49.3701 5.67285C49.945 6.03108 50.5077 6.40676 51.0566 6.80078L50.4746 7.6123C51.0068 7.99432 51.5259 8.39338 52.0312 8.80859L52.665 8.03613C53.188 8.46575 53.696 8.91265 54.1895 9.375L53.5078 10.1035C53.9856 10.5512 54.4488 11.0144 54.8965 11.4922L55.624 10.8096C56.0864 11.303 56.5333 11.8111 56.9629 12.334L56.1914 12.9688C56.6066 13.4741 57.0057 13.9932 57.3877 14.5254L58.1982 13.9424C58.5923 14.4913 58.9679 15.054 59.3262 15.6289L58.4805 16.1572C58.826 16.7118 59.1543 17.2785 59.4639 17.8564L60.3428 17.3838C60.6615 17.9788 60.9629 18.5847 61.2432 19.2021L60.333 19.6162C60.6027 20.2105 60.8537 20.8155 61.085 21.4297L62.0186 21.0771C62.2561 21.708 62.4741 22.3484 62.6709 22.998L61.7158 23.2881C61.9047 23.9116 62.074 24.5436 62.2227 25.1836L63.1953 24.957Z" stroke="#8C705F" stroke-width="2" stroke-dasharray="2 2"/>
<path d="M38 25.75H45.5V33.25" stroke="#8C705F" stroke-width="1.5" stroke-linecap="round" stroke-linejoin="round"/>
<path d="M45.5 25.75L34.875 36.375L28.625 30.125L20.5 38.25" stroke="#8C705F" stroke-width="1.5" stroke-linecap="round" stroke-linejoin="round"/>
</g>
<defs>
<filter id="filter0_d_234_1259" x="0" y="0" width="66" height="66" filterUnits="userSpaceOnUse" color-interpolation-filters="sRGB">
<feFlood flood-opacity="0" result="BackgroundImageFix"/>
<feColorMatrix in="SourceAlpha" type="matrix" values="0 0 0 0 0 0 0 0 0 0 0 0 0 0 0 0 0 0 127 0" result="hardAlpha"/>
<feOffset dy="1"/>
<feGaussianBlur stdDeviation="1"/>
<feColorMatrix type="matrix" values="0 0 0 0 0 0 0 0 0 0 0 0 0 0 0 0 0 0 0.05 0"/>
<feBlend mode="normal" in2="BackgroundImageFix" result="effect1_dropShadow_234_1259"/>
<feBlend mode="normal" in="SourceGraphic" in2="effect1_dropShadow_234_1259" result="shape"/>
</filter>
</defs>
</svg>
