<svg width="52" height="52" viewBox="0 0 52 52" fill="none" xmlns="http://www.w3.org/2000/svg">
<g filter="url(#filter0_d_234_1273)">
<path d="M2 25C2 11.7452 12.7452 1 26 1C39.2548 1 50 11.7452 50 25C50 38.2548 39.2548 49 26 49C12.7452 49 2 38.2548 2 25Z" fill="white"/>
<path d="M49.7959 21.8652C49.8855 22.5522 49.9453 23.2482 49.9756 23.9521L49.4775 23.9736C49.4922 24.3139 49.5 24.6561 49.5 25C49.5 25.3439 49.4922 25.6861 49.4775 26.0264L49.9756 26.0469C49.9454 26.7508 49.8855 27.4468 49.7959 28.1338L49.3018 28.0703C49.2127 28.7529 49.0936 29.4261 48.9473 30.0889L49.4336 30.1963C49.2823 30.8816 49.102 31.5558 48.8936 32.2178L48.418 32.0693C48.2117 32.7241 47.9775 33.3665 47.7168 33.9951L48.1768 34.1855C47.9084 34.8328 47.613 35.4658 47.291 36.083L46.8496 35.8525C46.5327 36.4601 46.1893 37.0529 45.8223 37.6279L46.2432 37.8955C45.867 38.4848 45.4648 39.0556 45.04 39.6084L44.6455 39.3066C44.2286 39.8491 43.7879 40.3724 43.3262 40.876L43.6943 41.2129C43.2222 41.7279 42.7279 42.2222 42.2129 42.6943L41.876 42.3262C41.3724 42.7879 40.8491 43.2286 40.3066 43.6455L40.6084 44.04C40.0556 44.4648 39.4848 44.867 38.8955 45.2432L38.6279 44.8223C38.0529 45.1893 37.4601 45.5327 36.8525 45.8496L37.083 46.291C36.4658 46.613 35.8328 46.9084 35.1855 47.1768L34.9951 46.7168C34.3665 46.9775 33.7241 47.2117 33.0693 47.418L33.2178 47.8936C32.5558 48.102 31.8816 48.2823 31.1963 48.4336L31.0889 47.9473C30.4261 48.0936 29.7529 48.2127 29.0703 48.3018L29.1338 48.7959C28.4468 48.8855 27.7508 48.9454 27.0469 48.9756L27.0264 48.4775C26.6861 48.4922 26.3439 48.5 26 48.5C25.6561 48.5 25.3139 48.4922 24.9736 48.4775L24.9521 48.9756C24.2482 48.9453 23.5522 48.8855 22.8652 48.7959L22.9297 48.3018C22.2471 48.2127 21.5739 48.0936 20.9111 47.9473L20.8027 48.4336C20.1174 48.2823 19.4432 48.1021 18.7812 47.8936L18.9307 47.418C18.2759 47.2117 17.6335 46.9775 17.0049 46.7168L16.8135 47.1768C16.1662 46.9083 15.5332 46.613 14.916 46.291L15.1475 45.8496C14.5399 45.5327 13.9471 45.1893 13.3721 44.8223L13.1035 45.2432C12.5142 44.867 11.9433 44.4648 11.3906 44.04L11.6934 43.6455C11.1509 43.2286 10.6276 42.7879 10.124 42.3262L9.78613 42.6943C9.27114 42.2222 8.77682 41.7279 8.30469 41.2129L8.67383 40.876C8.21211 40.3724 7.77138 39.8491 7.35449 39.3066L6.95898 39.6084C6.53428 39.0557 6.13201 38.4848 5.75586 37.8955L6.17773 37.6279C5.81066 37.0529 5.46733 36.4601 5.15039 35.8525L4.70801 36.083C4.38608 35.4658 4.09064 34.8328 3.82227 34.1855L4.2832 33.9951C4.02252 33.3665 3.7883 32.7241 3.58203 32.0693L3.10547 32.2178C2.89699 31.5559 2.7167 30.8816 2.56543 30.1963L3.05273 30.0889C2.90643 29.4261 2.78729 28.7529 2.69824 28.0703L2.20312 28.1338C2.11354 27.4469 2.05365 26.7508 2.02344 26.0469L2.52246 26.0264C2.50784 25.6861 2.5 25.3439 2.5 25C2.5 24.6561 2.50784 24.3139 2.52246 23.9736L2.02344 23.9521C2.05253 23.2749 2.10829 22.6049 2.19238 21.9434L2.20312 21.8652L2.69824 21.9297C2.78729 21.2471 2.90643 20.5739 3.05273 19.9111L2.56543 19.8027C2.71673 19.1174 2.89697 18.4432 3.10547 17.7812L3.58203 17.9307C3.7883 17.2759 4.02252 16.6335 4.2832 16.0049L3.82227 15.8135C4.09066 15.1663 4.38606 14.5332 4.70801 13.916L5.15039 14.1475C5.46733 13.5399 5.81066 12.9471 6.17773 12.3721L5.75586 12.1035C6.13203 11.5143 6.53427 10.9433 6.95898 10.3906L7.35449 10.6934C7.77138 10.1509 8.21211 9.62764 8.67383 9.12402L8.30469 8.78613C8.77682 8.27114 9.27114 7.77682 9.78613 7.30469L10.124 7.67383C10.6276 7.21211 11.1509 6.77138 11.6934 6.35449L11.3906 5.95898C11.9433 5.53427 12.5143 5.13203 13.1035 4.75586L13.3721 5.17773C13.9471 4.81066 14.5399 4.46733 15.1475 4.15039L14.916 3.70801C15.5332 3.38606 16.1663 3.09066 16.8135 2.82227L17.0049 3.2832C17.6335 3.02252 18.2759 2.7883 18.9307 2.58203L18.7812 2.10547C19.4432 1.89697 20.1174 1.71673 20.8027 1.56543L20.9111 2.05273C21.5739 1.90643 22.2471 1.78729 22.9297 1.69824L22.8652 1.20312C23.5522 1.11352 24.2482 1.05368 24.9521 1.02344L24.9736 1.52246C25.3139 1.50784 25.6561 1.5 26 1.5C26.3439 1.5 26.6861 1.50784 27.0264 1.52246L27.0469 1.02344C27.7508 1.05365 28.4469 1.11354 29.1338 1.20312L29.0703 1.69824C29.7529 1.78729 30.4261 1.90643 31.0889 2.05273L31.1963 1.56543C31.8816 1.7167 32.5559 1.89699 33.2178 2.10547L33.0693 2.58203C33.7241 2.7883 34.3665 3.02252 34.9951 3.2832L35.1855 2.82227C35.8328 3.09064 36.4658 3.38608 37.083 3.70801L36.8525 4.15039C37.4601 4.46733 38.0529 4.81066 38.6279 5.17773L38.8955 4.75586C39.4848 5.13201 40.0557 5.53428 40.6084 5.95898L40.3066 6.35449C40.8491 6.77138 41.3724 7.21211 41.876 7.67383L42.2129 7.30469C42.7279 7.77682 43.2222 8.27114 43.6943 8.78613L43.3262 9.12402C43.7879 9.62764 44.2286 10.1509 44.6455 10.6934L45.04 10.3906C45.4648 10.9433 45.867 11.5142 46.2432 12.1035L45.8223 12.3721C46.1893 12.9471 46.5327 13.5399 46.8496 14.1475L47.291 13.916C47.613 14.5332 47.9083 15.1662 48.1768 15.8135L47.7168 16.0049C47.9775 16.6335 48.2117 17.2759 48.418 17.9307L48.8936 17.7812C49.1021 18.4432 49.2823 19.1174 49.4336 19.8027L48.9473 19.9111C49.0936 20.5739 49.2127 21.2471 49.3018 21.9297L49.7959 21.8652Z" stroke="#2563EB" stroke-dasharray="2 2"/>
<path d="M20 16L34 25L20 34V16Z" stroke="#2563EB" stroke-linecap="round" stroke-linejoin="round"/>
</g>
<defs>
<filter id="filter0_d_234_1273" x="0" y="0" width="52" height="52" filterUnits="userSpaceOnUse" color-interpolation-filters="sRGB">
<feFlood flood-opacity="0" result="BackgroundImageFix"/>
<feColorMatrix in="SourceAlpha" type="matrix" values="0 0 0 0 0 0 0 0 0 0 0 0 0 0 0 0 0 0 127 0" result="hardAlpha"/>
<feOffset dy="1"/>
<feGaussianBlur stdDeviation="1"/>
<feColorMatrix type="matrix" values="0 0 0 0 0 0 0 0 0 0 0 0 0 0 0 0 0 0 0.05 0"/>
<feBlend mode="normal" in2="BackgroundImageFix" result="effect1_dropShadow_234_1273"/>
<feBlend mode="normal" in="SourceGraphic" in2="effect1_dropShadow_234_1273" result="shape"/>
</filter>
</defs>
</svg>
