<svg width="107" height="107" viewBox="0 0 107 107" fill="none" xmlns="http://www.w3.org/2000/svg">
<g filter="url(#filter0_d_338_1450)">
<path d="M3.13239 52.4353C2.65045 24.8252 24.6421 2.05219 52.2522 1.57025C79.8622 1.08832 102.635 23.08 103.117 50.69C103.599 78.3 81.6074 101.073 53.9974 101.555C26.3874 102.037 3.61432 80.0453 3.13239 52.4353Z" fill="#DBE5DE"/>
<path d="M55.0568 1.59943C56.9466 1.67083 58.8102 1.84686 60.642 2.12313L60.4188 3.60577C62.2273 3.87855 64.0036 4.25185 65.7418 4.71909L66.1306 3.27068C67.9476 3.75909 69.7232 4.3503 71.4532 5.03255L70.9042 6.42516C72.5986 7.0934 74.2472 7.85475 75.8431 8.70259L76.5457 7.38055C78.2017 8.26032 79.8047 9.22731 81.3442 10.2816L81.3442 10.2826L80.4965 11.5202C81.9954 12.5467 83.4341 13.6556 84.8061 14.8401L85.7845 13.7066C87.2 14.9286 88.5462 16.2287 89.8169 17.6007L88.7193 18.619C89.9509 19.9488 91.1093 21.348 92.1875 22.8101L93.3948 21.9198L93.3948 21.9188C94.5022 23.4205 95.5245 24.9888 96.4616 26.6131L95.1659 27.3623C96.0689 28.9277 96.8873 30.5487 97.6143 32.2188L98.9859 31.6205C99.7281 33.3257 100.381 35.0795 100.932 36.8784L100.933 36.8784L99.4995 37.3185C100.027 39.0393 100.462 40.8015 100.798 42.5994L102.271 42.3236C102.611 44.1446 102.852 46.001 102.989 47.8871L101.495 47.9953C101.56 48.8952 101.601 49.8027 101.617 50.7162C101.633 51.6297 101.624 52.5381 101.59 53.4397L103.087 53.4947C103.016 55.3845 102.84 57.2481 102.563 59.0799L101.082 58.8567C100.809 60.6652 100.436 62.4415 99.9683 64.1796L101.416 64.5685C100.927 66.3855 100.336 68.161 99.6539 69.8911L98.2623 69.342C97.594 71.0365 96.8327 72.685 95.9848 74.281L97.3059 74.9836C96.4261 76.6396 95.4592 78.2425 94.4048 79.782L93.1672 78.9344C92.1407 80.4332 91.0318 81.872 89.8473 83.2439L90.9798 84.2224C89.7577 85.6379 88.4577 86.9841 87.0857 88.2548L86.0684 87.1572C84.7386 88.3888 83.3394 89.5472 81.8773 90.6254L82.7676 91.8327C81.2659 92.9401 79.6977 93.9624 78.0734 94.8994L77.3251 93.6037C75.7597 94.5067 74.1387 95.3252 72.4686 96.0521L73.0659 97.4237C71.3607 98.166 69.6069 98.8188 67.808 99.3703L67.3689 97.9373C65.6481 98.4649 63.8859 98.9 62.088 99.2357L62.3628 100.709C60.5418 101.049 58.6855 101.29 56.7993 101.427L56.6921 99.9325C55.7922 99.9981 54.8848 100.039 53.9712 100.055C53.0577 100.071 52.1493 100.062 51.2477 100.028L51.1918 101.525C49.3019 101.453 47.4383 101.277 45.6066 101.001L45.8307 99.5195C44.0222 99.2467 42.2459 98.8734 40.5078 98.4062L40.1179 99.8536C38.3009 99.3652 36.5254 98.7741 34.7954 98.0918L35.3454 96.7001C33.6509 96.0319 32.0024 95.2705 30.4064 94.4227L29.7028 95.7438C28.0468 94.8639 26.4439 93.8971 24.9044 92.8427L25.753 91.605C24.2542 90.5785 22.8154 89.4697 21.4435 88.2852L20.4641 89.4177C19.0486 88.1956 17.7023 86.8956 16.4316 85.5236L17.5302 84.5062C16.2986 83.1764 15.1402 81.7773 14.062 80.3152L12.8538 81.2055C11.7464 79.7038 10.724 78.1356 9.78698 76.5113L11.0837 75.7629C10.1807 74.1976 9.36225 72.5766 8.63528 70.9065L7.26268 71.5038C6.52047 69.7986 5.86765 68.0448 5.31613 66.2459L6.75009 65.8068C6.22248 64.086 5.78741 62.3238 5.45167 60.5259L3.97773 60.8007C3.6377 58.9797 3.39674 57.1233 3.25943 55.2372L4.75486 55.13C4.68932 54.2301 4.6481 53.3226 4.63216 52.4091C4.61621 51.4955 4.62573 50.5872 4.65982 49.6855L3.16155 49.6296C3.23299 47.7399 3.40894 45.8762 3.68525 44.0444L5.1679 44.2686C5.44069 42.4601 5.81399 40.6838 6.28123 38.9456L4.8328 38.5558C5.32124 36.7388 5.91239 34.9632 6.59467 33.2332L7.98729 33.7832C8.65553 32.0888 9.41688 30.4402 10.2647 28.8443L8.94267 28.1407C9.82246 26.4847 10.7894 24.8817 11.8437 23.3423L11.8447 23.3432L13.0824 24.1909C14.1089 22.692 15.2177 21.2533 16.4022 19.8813L15.2687 18.9019C16.4908 17.4865 17.7909 16.1402 19.1628 14.8695L20.1812 15.9681C21.511 14.7365 22.9101 13.5781 24.3722 12.4999L23.4819 11.2926L23.4809 11.2916C24.9826 10.1842 26.5509 9.16191 28.1752 8.22486L28.9245 9.52155C30.4898 8.61853 32.1108 7.80012 33.7809 7.07314L33.1827 5.70056C34.8878 4.95832 36.6417 4.30557 38.4405 3.75401L38.8806 5.18796C40.6014 4.66034 42.3636 4.22528 44.1615 3.88954L43.8857 2.41561C45.7067 2.07555 47.5631 1.83466 49.4493 1.69731L49.5574 3.19272C50.4573 3.12719 51.3648 3.08597 52.2783 3.07002C53.1919 3.05408 54.1002 3.0636 55.0019 3.09769L55.0568 1.59943Z" stroke="#B7CBBD" stroke-width="3" stroke-dasharray="6 6"/>
<path d="M52.8709 36.9815C52.8588 36.1484 52.6803 35.326 52.3457 34.5628C52.0111 33.7997 51.5274 33.1111 50.9228 32.5377C50.3182 31.9642 49.6051 31.5174 48.8254 31.2236C48.0456 30.9298 47.215 30.7949 46.3823 30.8268C45.5496 30.8587 44.7318 31.0568 43.9768 31.4094C43.2218 31.762 42.5449 32.262 41.986 32.8801C41.4271 33.4981 40.9974 34.2216 40.7222 35.0082C40.4471 35.7947 40.3319 36.6283 40.3836 37.46M52.8709 36.9815L53.3436 64.0607M52.8709 36.9815C52.8539 36.1484 53.0037 35.3203 53.3114 34.546C53.6191 33.7716 54.0786 33.0666 54.6628 32.4724C55.247 31.8782 55.9441 31.4068 56.7131 31.0859C57.4821 30.7651 58.3075 30.6013 59.1408 30.6041C59.9741 30.6069 60.7984 30.7763 61.5652 31.1024C62.332 31.4284 63.0259 31.9045 63.6061 32.5027C64.1862 33.1008 64.6409 33.8089 64.9433 34.5854C65.2458 35.3618 65.39 36.1909 65.3673 37.0239C66.5972 37.3173 67.7442 37.8868 68.7214 38.6892C69.6986 39.4915 70.4805 40.5057 71.0077 41.655C71.5349 42.8042 71.7937 44.0584 71.7644 45.3225C71.7351 46.5865 71.4186 47.8274 70.8388 48.951C71.9074 49.7886 72.7551 50.8746 73.3083 52.1145C73.8614 53.3544 74.1032 54.7108 74.0127 56.0654C73.9221 57.4201 73.502 58.7322 72.7887 59.8875C72.0755 61.0427 71.0907 62.0062 69.9202 62.6942C70.0859 63.8211 70.0188 64.97 69.7231 66.07C69.4273 67.17 68.9092 68.1977 68.2007 69.0896C67.4923 69.9815 66.6085 70.7187 65.6039 71.2557C64.5994 71.7927 63.4954 72.118 62.3602 72.2116C61.225 72.3052 60.0826 72.165 59.0037 71.7998C57.9248 71.4346 56.9322 70.8521 56.0872 70.0883C55.2422 69.3244 54.5628 68.3955 54.0909 67.3588C53.619 66.322 53.3647 65.1996 53.3436 64.0607M40.3836 37.46C39.1647 37.7962 38.0383 38.4053 37.0897 39.2413C36.1411 40.0773 35.3951 41.1181 34.9083 42.2851C34.4216 43.4521 34.2067 44.7145 34.2801 45.9768C34.3534 47.239 34.713 48.4681 35.3317 49.5708C34.293 50.4452 33.4837 51.5601 32.9742 52.8186C32.4646 54.077 32.2703 55.4409 32.4081 56.7917C32.5458 58.1424 33.0115 59.4389 33.7647 60.5686C34.5178 61.6983 35.5356 62.6269 36.7294 63.2735C36.6031 64.4055 36.7103 65.5514 37.0442 66.6404C37.3782 67.7294 37.9318 68.7384 38.671 69.6051C39.4102 70.4717 40.3192 71.1776 41.3419 71.6792C42.3645 72.1808 43.4792 72.4674 44.617 72.5213C45.7547 72.5752 46.8915 72.3953 47.957 71.9927C49.0225 71.59 49.9942 70.9732 50.812 70.1804C51.6298 69.3875 52.2764 68.4354 52.7118 67.3828C53.1472 66.3303 53.3623 65.1996 53.3436 64.0607M40.3836 37.46C40.4424 38.4669 40.744 39.4446 41.2627 40.3096M59.4108 53.5366C57.6513 52.9519 56.1046 51.8586 54.9664 50.3949C53.8282 48.9313 53.1496 47.163 53.0164 45.3136C52.9477 47.1665 52.3312 48.9574 51.2448 50.4599C50.1584 51.9624 48.6508 53.109 46.9128 53.7547M64.5883 39.9025C65.0772 39.02 65.3452 38.0324 65.3694 37.0238M35.3318 49.5729C35.7074 49.2559 36.1104 48.9727 36.5359 48.7267M69.6059 48.1495C70.0398 48.3805 70.4524 48.6494 70.8388 48.9531M40.8455 64.2789C39.41 64.3046 37.9921 63.959 36.7294 63.2756M69.9202 62.6962C68.6822 63.4233 67.2773 63.8182 65.8417 63.8426" stroke="#9333EA" stroke-width="2.34375" stroke-linecap="round" stroke-linejoin="round"/>
</g>
<defs>
<filter id="filter0_d_338_1450" x="-0.865234" y="-0.864868" width="107.98" height="107.98" filterUnits="userSpaceOnUse" color-interpolation-filters="sRGB">
<feFlood flood-opacity="0" result="BackgroundImageFix"/>
<feColorMatrix in="SourceAlpha" type="matrix" values="0 0 0 0 0 0 0 0 0 0 0 0 0 0 0 0 0 0 127 0" result="hardAlpha"/>
<feOffset dy="1.5625"/>
<feGaussianBlur stdDeviation="1.5625"/>
<feColorMatrix type="matrix" values="0 0 0 0 0 0 0 0 0 0 0 0 0 0 0 0 0 0 0.05 0"/>
<feBlend mode="normal" in2="BackgroundImageFix" result="effect1_dropShadow_338_1450"/>
<feBlend mode="normal" in="SourceGraphic" in2="effect1_dropShadow_338_1450" result="shape"/>
</filter>
</defs>
</svg>
