<svg width="32" height="32" viewBox="0 0 32 32" fill="none" xmlns="http://www.w3.org/2000/svg">
<path d="M13.2486 20.6667C13.1296 20.2053 12.8891 19.7842 12.5521 19.4472C12.2151 19.1103 11.794 18.8698 11.3326 18.7507L3.1526 16.6414C3.01304 16.6018 2.89021 16.5177 2.80275 16.402C2.71529 16.2862 2.66797 16.1451 2.66797 16C2.66797 15.855 2.71529 15.7139 2.80275 15.5981C2.89021 15.4824 3.01304 15.3983 3.1526 15.3587L11.3326 13.248C11.7939 13.1291 12.2149 12.8888 12.5518 12.5521C12.8888 12.2154 13.1294 11.7946 13.2486 11.3334L15.3579 3.15338C15.3971 3.01327 15.4811 2.88984 15.597 2.80191C15.7129 2.71398 15.8544 2.66638 15.9999 2.66638C16.1454 2.66638 16.2869 2.71398 16.4028 2.80191C16.5188 2.88984 16.6027 3.01327 16.6419 3.15338L18.7499 11.3334C18.869 11.7948 19.1095 12.2159 19.4464 12.5529C19.7834 12.8898 20.2045 13.1303 20.6659 13.2494L28.8459 15.3574C28.9866 15.3962 29.1107 15.4801 29.1991 15.5961C29.2875 15.7122 29.3353 15.8541 29.3353 16C29.3353 16.146 29.2875 16.2879 29.1991 16.4039C29.1107 16.52 28.9866 16.6039 28.8459 16.6427L20.6659 18.7507C20.2045 18.8698 19.7834 19.1103 19.4464 19.4472C19.1095 19.7842 18.869 20.2053 18.7499 20.6667L16.6406 28.8467C16.6014 28.9868 16.5174 29.1103 16.4015 29.1982C16.2856 29.2861 16.1441 29.3337 15.9986 29.3337C15.8531 29.3337 15.7116 29.2861 15.5957 29.1982C15.4798 29.1103 15.3958 28.9868 15.3566 28.8467L13.2486 20.6667Z" stroke="#4A7C59" stroke-width="1.5" stroke-linecap="round" stroke-linejoin="round"/>
<path d="M26.667 4V9.33333" stroke="#4A7C59" stroke-width="1.5" stroke-linecap="round" stroke-linejoin="round"/>
<path d="M29.3333 6.66663H24" stroke="#4A7C59" stroke-width="1.5" stroke-linecap="round" stroke-linejoin="round"/>
<path d="M5.33203 22.6666V25.3333" stroke="#4A7C59" stroke-width="1.5" stroke-linecap="round" stroke-linejoin="round"/>
<path d="M6.66667 24H4" stroke="#4A7C59" stroke-width="1.5" stroke-linecap="round" stroke-linejoin="round"/>
</svg>
