<svg width="32" height="32" viewBox="0 0 32 32" fill="none" xmlns="http://www.w3.org/2000/svg">
<path d="M16.0004 6.66669C16.002 6.1334 15.8969 5.60518 15.6914 5.11309C15.4858 4.62101 15.1839 4.17499 14.8035 3.80129C14.423 3.42758 13.9717 3.13372 13.476 2.937C12.9803 2.74028 12.4503 2.64466 11.9171 2.65578C11.3839 2.66689 10.8583 2.78451 10.3713 3.00171C9.88422 3.21892 9.44551 3.53133 9.08096 3.92057C8.71641 4.3098 8.43337 4.76801 8.24849 5.26823C8.06362 5.76845 7.98063 6.3006 8.00442 6.83336M16.0004 6.66669V24M16.0004 6.66669C15.9989 6.1334 16.1039 5.60518 16.3095 5.11309C16.5151 4.62101 16.8169 4.17499 17.1974 3.80129C17.5779 3.42758 18.0292 3.13372 18.5249 2.937C19.0206 2.74028 19.5506 2.64466 20.0838 2.65578C20.6169 2.66689 21.1425 2.78451 21.6296 3.00171C22.1166 3.21892 22.5553 3.53133 22.9199 3.92057C23.2844 4.3098 23.5675 4.76801 23.7524 5.26823C23.9372 5.76845 24.0202 6.3006 23.9964 6.83336C24.7802 7.03488 25.5078 7.41209 26.1241 7.93644C26.7405 8.46079 27.2294 9.11852 27.554 9.85982C27.8785 10.6011 28.0301 11.4066 27.9972 12.2151C27.9644 13.0237 27.748 13.8142 27.3644 14.5267C28.0389 15.0746 28.5692 15.779 28.9093 16.5786C29.2494 17.3782 29.389 18.2488 29.3159 19.1147C29.2429 19.9805 28.9593 20.8154 28.49 21.5467C28.0207 22.278 27.3798 22.8836 26.6231 23.3107C26.7165 24.0337 26.6608 24.7681 26.4592 25.4687C26.2577 26.1693 25.9147 26.8211 25.4514 27.384C24.9881 27.9468 24.4143 28.4087 23.7655 28.741C23.1167 29.0734 22.4066 29.2693 21.6791 29.3165C20.9517 29.3637 20.2222 29.2613 19.5359 29.0155C18.8496 28.7698 18.2209 28.3859 17.6887 27.8877C17.1566 27.3895 16.7322 26.7874 16.4418 26.1188C16.1514 25.4501 16.0012 24.729 16.0004 24M8.00442 6.83336C7.22069 7.03488 6.49309 7.41209 5.87673 7.93644C5.26037 8.46079 4.77141 9.11852 4.44688 9.85982C4.12236 10.6011 3.97077 11.4066 4.00361 12.2151C4.03645 13.0237 4.25285 13.8142 4.63642 14.5267C3.962 15.0746 3.43166 15.779 3.09154 16.5786C2.75143 17.3782 2.61183 18.2488 2.68491 19.1147C2.75798 19.9805 3.04151 20.8154 3.51083 21.5467C3.98015 22.278 4.62104 22.8836 5.37776 23.3107C5.28431 24.0337 5.34008 24.7681 5.54161 25.4687C5.74314 26.1693 6.08615 26.8211 6.54947 27.384C7.01279 27.9468 7.58657 28.4087 8.23538 28.741C8.8842 29.0734 9.59426 29.2693 10.3217 29.3165C11.0492 29.3637 11.7786 29.2613 12.4649 29.0155C13.1513 28.7698 13.7799 28.3859 14.3121 27.8877C14.8443 27.3895 15.2687 26.7874 15.559 26.1188C15.8494 25.4501 15.9996 24.729 16.0004 24M8.00442 6.83336C8.03079 7.47834 8.21286 8.10735 8.53509 8.66669M20.0004 17.3334C18.881 16.9396 17.9035 16.2227 17.1915 15.2734C16.4795 14.324 16.065 13.1849 16.0004 12C15.9358 13.1849 15.5213 14.324 14.8093 15.2734C14.0973 16.2227 13.1198 16.9396 12.0004 17.3334M23.4658 8.66669C23.7885 8.10747 23.971 7.47845 23.9978 6.83336M4.63642 14.528C4.88034 14.3294 5.14136 14.1527 5.41642 14M26.5844 14C26.8595 14.1527 27.1205 14.3294 27.3644 14.528M8.00042 24C7.08153 24.0005 6.17811 23.7635 5.37776 23.312M26.6231 23.312C25.8227 23.7635 24.9193 24.0005 24.0004 24" stroke="#9333EA" stroke-width="1.5" stroke-linecap="round" stroke-linejoin="round"/>
</svg>
