<svg width="29" height="29" viewBox="0 0 29 29" fill="none" xmlns="http://www.w3.org/2000/svg">
<path d="M14.0833 27.4167C21.4471 27.4167 27.4167 21.4471 27.4167 14.0833C27.4167 6.71954 21.4471 0.75 14.0833 0.75C6.71954 0.75 0.75 6.71954 0.75 14.0833C0.75 21.4471 6.71954 27.4167 14.0833 27.4167Z" stroke="#EF4444" stroke-width="1.5" stroke-linecap="round" stroke-linejoin="round"/>
<path d="M14.0833 22.0833C18.5016 22.0833 22.0833 18.5016 22.0833 14.0833C22.0833 9.66506 18.5016 6.08333 14.0833 6.08333C9.66506 6.08333 6.08333 9.66506 6.08333 14.0833C6.08333 18.5016 9.66506 22.0833 14.0833 22.0833Z" stroke="#EF4444" stroke-width="1.5" stroke-linecap="round" stroke-linejoin="round"/>
<path d="M14.0833 16.75C15.5561 16.75 16.75 15.5561 16.75 14.0833C16.75 12.6106 15.5561 11.4167 14.0833 11.4167C12.6106 11.4167 11.4167 12.6106 11.4167 14.0833C11.4167 15.5561 12.6106 16.75 14.0833 16.75Z" stroke="#EF4444" stroke-width="1.5" stroke-linecap="round" stroke-linejoin="round"/>
</svg>
